<svg id="Layer_1_1_" enable-background="new 0 0 64 64" height="512" viewBox="0 0 64 64" width="512" xmlns="http://www.w3.org/2000/svg"><g><path d="m60 22h-4.5c-.275 0-.5-.224-.5-.5s.225-.5.5-.5h1c1.379 0 2.5-1.122 2.5-2.5s-1.121-2.5-2.5-2.5h-22.642l4.507-4.506-1.415-1.414-5.921 5.92h-2.828l11.224-11.224c.128-.127.276-.146.354-.146s.226.019.354.146.146.276.146.354-.019.226-.146.354l-.708.706c-.473.472-.732 1.1-.732 1.768 0 .667.26 1.295.732 1.768.975.975 2.561.975 3.535 0l3.182-3.182c.391-.39 1.024-.391 1.415 0l8.163 8.163 1.414-1.414-8.163-8.164c-1.171-1.17-3.074-1.167-4.243 0l-3.182 3.182c-.128.127-.276.146-.354.146s-.226-.019-.354-.146-.146-.276-.146-.354.019-.226.146-.354l.707-.707c.473-.472.732-1.1.732-1.768 0-.667-.26-1.295-.732-1.768-.945-.944-2.59-.944-3.535 0l-12.637 12.64h-17.873c-1.379 0-2.5 1.122-2.5 2.5s1.121 2.5 2.5 2.5h1c.275 0 .5.224.5.5s-.225.5-.5.5h-4.5c-1.654 0-3 1.346-3 3v14c0 1.654 1.346 3 3 3h4.5c.275 0 .5.224.5.5s-.225.5-.5.5h-1c-1.379 0-2.5 1.122-2.5 2.5s1.121 2.5 2.5 2.5h22.642l-4.507 4.506 1.414 1.414 5.922-5.92h2.828l-11.224 11.224c-.128.127-.276.146-.354.146s-.226-.019-.354-.146-.146-.276-.146-.354.019-.226.146-.354l.707-.707c.473-.472.732-1.1.732-1.768 0-.667-.26-1.295-.732-1.768-.975-.975-2.561-.975-3.535 0l-3.182 3.182c-.39.39-1.023.391-1.415 0l-8.162-8.162-1.414 1.414 8.163 8.164c1.17 1.169 3.073 1.168 4.243 0l3.182-3.182c.128-.127.276-.146.354-.146s.226.019.354.146.146.276.146.354-.019.226-.146.354l-.707.707c-.473.472-.732 1.1-.732 1.768 0 .667.26 1.295.732 1.768s1.1.732 1.768.732 1.295-.26 1.768-.732l12.636-12.64h17.873c1.379 0 2.5-1.122 2.5-2.5s-1.121-2.5-2.5-2.5h-1c-.275 0-.5-.224-.5-.5s.225-.5.5-.5h4.5c1.654 0 3-1.346 3-3v-14c0-1.654-1.346-3-3-3zm1 17c0 .551-.448 1-1 1h-4.5c-1.379 0-2.5 1.122-2.5 2.5s1.121 2.5 2.5 2.5h1c.275 0 .5.224.5.5s-.225.5-.5.5h-49c-.275 0-.5-.224-.5-.5s.225-.5.5-.5h1c1.379 0 2.5-1.122 2.5-2.5s-1.121-2.5-2.5-2.5h-4.5c-.552 0-1-.449-1-1v-14c0-.551.448-1 1-1h4.5c1.379 0 2.5-1.122 2.5-2.5s-1.121-2.5-2.5-2.5h-1c-.275 0-.5-.224-.5-.5s.225-.5.5-.5h49c.275 0 .5.224.5.5s-.225.5-.5.5h-1c-1.379 0-2.5 1.122-2.5 2.5s1.121 2.5 2.5 2.5h4.5c.552 0 1 .449 1 1z"/><path d="m13 20h38v2h-38z"/><path d="m13 42h38v2h-38z"/><path d="m56 26c-1.654 0-3 1.346-3 3h-3.021c-.939-1.246-2.416-2-3.979-2s-3.04.754-3.979 2h-6.041c-.939-1.246-2.416-2-3.979-2s-3.04.754-3.979 2h-6.041c-.939-1.246-2.416-2-3.979-2s-3.04.754-3.979 2h-3.023c0-1.654-1.346-3-3-3s-3 1.346-3 3v6c0 1.654 1.346 3 3 3s3-1.346 3-3h3.021c.939 1.246 2.416 2 3.979 2s3.04-.754 3.979-2h6.041c.939 1.246 2.416 2 3.979 2s3.04-.754 3.979-2h6.041c.939 1.246 2.416 2 3.979 2s3.04-.754 3.979-2h3.023c0 1.654 1.346 3 3 3s3-1.346 3-3v-6c0-1.654-1.346-3-3-3zm1 9c0 .551-.448 1-1 1s-1-.449-1-1v-1c0-.552-.447-1-1-1h-4.555c-.355 0-.685.189-.864.497-.548.941-1.513 1.503-2.581 1.503s-2.033-.562-2.581-1.503c-.18-.308-.509-.497-.864-.497h-7.109c-.355 0-.685.189-.864.497-.549.941-1.514 1.503-2.582 1.503s-2.033-.562-2.581-1.503c-.18-.308-.509-.497-.864-.497h-7.109c-.355 0-.685.189-.864.497-.549.941-1.514 1.503-2.582 1.503s-2.033-.562-2.581-1.503c-.18-.308-.509-.497-.864-.497h-4.555c-.553 0-1 .448-1 1v1c0 .551-.448 1-1 1s-1-.449-1-1v-6c0-.551.448-1 1-1s1 .449 1 1v1c0 .552.447 1 1 1h4.555c.355 0 .685-.189.864-.497.548-.941 1.513-1.503 2.581-1.503s2.033.562 2.581 1.503c.18.308.509.497.864.497h7.109c.355 0 .685-.189.864-.497.549-.941 1.514-1.503 2.582-1.503s2.033.562 2.581 1.503c.18.308.509.497.864.497h7.109c.355 0 .685-.189.864-.497.549-.941 1.514-1.503 2.582-1.503s2.033.562 2.581 1.503c.18.308.509.497.864.497h4.555c.553 0 1-.448 1-1v-1c0-.551.448-1 1-1s1 .449 1 1z"/></g></svg>