<?xml version="1.0" encoding="iso-8859-1"?>
<!-- Generator: Adobe Illustrator 19.0.0, SVG Export Plug-In . SVG Version: 6.00 Build 0)  -->
<svg version="1.1" id="Capa_1" xmlns="http://www.w3.org/2000/svg" xmlns:xlink="http://www.w3.org/1999/xlink" x="0px" y="0px"
	 viewBox="0 0 422.6 422.6" style="enable-background:new 0 0 422.6 422.6;" xml:space="preserve">
<path style="fill:#ED664C;" d="M394.144,91.5c7,8.5,5.7,21.1-2.8,28.1l-249.6,203.1l-0.5,0.1l-7.2-36.7l0.8-0.2l46.4-37.7l-19-23.2
	l204.6-166.9L394.144,91.5z"/>
<path style="fill:#FDC75B;" d="M141.244,322.8l4.3,21.9l-25,4.9c-19.5,3.8-38.4-8.9-42.2-28.4l-53.7-274.6
	c-3.3-16.7,7.6-32.8,24.3-36.1c2-0.4,4-0.6,5.9-0.6c14.4,0,27.3,10.2,30.1,24.9l49.1,251.3L141.244,322.8z"/>
<path d="M374.644,51.8c-3.5-4.3-9.8-4.9-14.1-1.4l-204.6,166.9c-4.3,3.5-4.9,9.8-1.4,14.1l12.6,15.5l-26.3,21.4l-46-235.4
	c-3.7-19.1-20.5-32.9-39.9-32.9c-2.6,0-5.3,0.3-7.9,0.8c-10.7,2.1-19.9,8.2-26,17.2s-8.3,19.9-6.2,30.6l53.6,274.5
	c2.4,12.1,9.3,22.5,19.5,29.3c0.4,0.3,0.9,0.6,1.3,0.8c-12.7,12-23.6,25.7-32.6,40.8l-8,13.5c-2.8,4.8-1.2,10.9,3.5,13.7
	c1.6,0.9,3.3,1.4,5.1,1.4c3.4,0,6.8-1.8,8.6-4.9l8-13.5c9.9-16.8,22.6-31.6,37.7-44c0.7,0,1.3,0,2,0c3,0,5.9-0.3,8.9-0.9l25-4.9
	c5.4-1.1,9-6.3,7.9-11.7l-3.1-15.7l245.3-199.7c12.8-10.5,14.7-29.4,4.2-42.2L374.644,51.8z M118.644,339.7
	c-6.8,1.3-13.7-0.1-19.5-3.9c-5.8-3.9-9.7-9.8-11-16.6l-53.7-274.5c-1.1-5.4,0.1-11,3.1-15.6c3.1-4.6,7.8-7.7,13.2-8.8
	c1.3-0.3,2.7-0.4,4-0.4c9.9,0,18.4,7.1,20.3,16.8l58.6,300.1L118.644,339.7z M384.944,111.9l-237,192.9l-2.8-14.3l42.4-34.5
	c2.1-1.7,3.4-4.1,3.6-6.7s-0.5-5.3-2.2-7.3l-12.6-15.6l189.1-154.2l20.9,25.6C389.844,102.1,389.244,108.4,384.944,111.9z"/>
<g>
</g>
<g>
</g>
<g>
</g>
<g>
</g>
<g>
</g>
<g>
</g>
<g>
</g>
<g>
</g>
<g>
</g>
<g>
</g>
<g>
</g>
<g>
</g>
<g>
</g>
<g>
</g>
<g>
</g>
</svg>
